<?xml version="1.0" standalone="no"?>
<!DOCTYPE svg PUBLIC "-//W3C//DTD SVG 20010904//EN"
 "http://www.w3.org/TR/2001/REC-SVG-20010904/DTD/svg10.dtd">
<svg version="1.0" xmlns="http://www.w3.org/2000/svg"
 width="400.000000pt" height="400.000000pt" viewBox="0 0 400.000000 400.000000"
 preserveAspectRatio="xMidYMid meet">
<metadata>
Created by potrace 1.11, written by Peter Selinger 2001-2013
</metadata>
<g transform="translate(0.000000,400.000000) scale(0.100000,-0.100000)"
fill="#000000" stroke="none">
<path d="M0 2000 l0 -2000 593 0 592 0 -2 66 c-1 36 -8 75 -16 87 -9 14 -16
68 -21 153 -4 72 -11 146 -16 165 -17 57 -12 111 15 161 31 58 31 61 0 92 -37
37 -36 39 39 141 18 25 34 257 19 277 -5 7 -18 41 -28 75 -10 35 -22 63 -27
63 -13 0 -9 63 8 113 15 45 15 49 -10 123 -23 68 -32 83 -104 152 -59 58 -91
99 -127 167 -27 50 -59 110 -73 135 -19 37 -23 55 -18 100 11 114 52 187 119
209 l32 11 0 125 c0 69 3 125 8 125 4 0 7 7 7 15 0 9 -6 12 -16 8 -14 -5 -15
1 -8 43 4 27 8 59 7 71 -1 16 3 20 15 16 11 -5 14 -2 9 10 -3 9 -2 19 4 23 6
3 8 12 5 20 -3 7 -1 16 5 19 5 4 7 11 4 16 -4 5 0 9 7 9 10 0 10 2 -1 9 -11 7
-10 11 7 20 13 7 19 17 16 26 -4 9 0 15 9 15 10 0 13 6 10 21 -5 17 -2 20 18
17 17 -2 27 4 37 25 7 15 19 27 27 27 8 0 12 6 9 13 -3 8 3 20 12 28 12 9 15
10 10 2 -9 -17 14 -17 51 -1 34 16 54 34 46 42 -4 3 7 6 23 6 16 0 40 9 54 20
14 11 30 20 36 20 7 0 26 14 44 30 18 17 44 33 59 36 35 8 94 36 103 50 4 7
19 15 33 18 14 4 25 11 25 16 0 6 13 10 28 10 15 0 45 9 67 20 22 11 52 20 68
20 22 0 28 4 23 16 -4 10 -2 13 6 8 30 -19 307 5 335 28 8 6 16 8 19 5 3 -3
19 -1 36 4 18 5 36 5 42 0 6 -5 70 -8 141 -8 168 0 192 -5 264 -58 51 -38 61
-42 61 -26 0 11 -6 26 -13 33 -8 7 -16 27 -20 44 -8 41 -64 123 -91 134 -11 5
-32 11 -46 14 -17 3 -35 22 -55 54 -23 38 -34 48 -49 44 -13 -3 -26 3 -40 20
-12 14 -40 37 -63 52 -23 14 -47 34 -52 45 -14 26 -62 37 -73 17 -12 -21 -38
-20 -38 1 0 15 -1 15 -19 -1 -10 -9 -36 -17 -57 -18 -21 -1 -54 -8 -73 -15
-18 -8 -40 -12 -47 -9 -8 3 -25 1 -39 -4 -34 -13 -255 -72 -280 -74 -11 -2
-27 -5 -35 -9 -37 -14 -96 -31 -105 -29 -5 1 -18 -12 -27 -29 -12 -19 -24 -29
-35 -27 -19 3 -24 33 -52 308 -7 63 -14 134 -18 158 l-5 42 -704 0 -704 0 0
-2000z m1130 961 c0 -5 -7 -11 -15 -15 -15 -5 -20 5 -8 17 9 10 23 9 23 -2z
m-30 -35 c0 -3 -4 -8 -10 -11 -5 -3 -10 -1 -10 4 0 6 5 11 10 11 6 0 10 -2 10
-4z m-6 -2078 c-4 -7 -31 -45 -61 -84 -30 -39 -53 -78 -51 -85 2 -8 -3 -13
-11 -11 -9 2 -12 -5 -9 -22 3 -14 1 -23 -3 -20 -5 3 -9 0 -9 -5 0 -6 7 -11 15
-11 8 0 15 -4 15 -10 0 -5 -4 -10 -9 -10 -5 0 -24 -20 -42 -45 -19 -24 -42
-47 -51 -50 -32 -11 -20 -42 29 -74 52 -35 78 -38 105 -14 17 15 18 15 18 -10
0 -15 5 -27 10 -27 6 0 10 -10 10 -22 0 -19 -2 -20 -10 -8 -8 11 -9 8 -4 -11
6 -29 -14 -76 -42 -100 -16 -13 -16 -12 0 13 10 15 15 32 11 39 -6 8 -10 7
-16 -2 -7 -11 -9 -9 -10 6 0 11 -3 14 -6 8 -7 -18 -32 -16 -39 2 -4 8 -1 21 5
29 9 10 9 20 0 40 -11 24 -13 24 -25 8 -17 -22 -18 -79 -1 -85 9 -4 9 -8 1
-14 -6 -4 -11 -17 -11 -28 1 -39 -3 -78 -8 -74 -2 3 -7 50 -10 104 -7 104 -20
139 -55 150 -11 3 -20 15 -20 25 0 37 129 234 232 353 48 54 67 72 52 45z"/>
<path d="M870 539 c0 -5 5 -7 10 -4 6 3 10 8 10 11 0 2 -4 4 -10 4 -5 0 -10
-5 -10 -11z"/>
<path d="M2776 2782 c-11 -10 -6 -23 6 -16 7 4 8 3 4 -5 -4 -7 -13 -10 -19 -8
-19 6 -63 -55 -53 -72 10 -16 -88 -36 -169 -35 -50 0 -110 9 -160 23 -44 12
-99 23 -122 23 -30 1 -43 6 -43 15 0 8 -5 11 -10 8 -6 -3 -13 1 -16 9 -7 18
-51 21 -74 6 -8 -5 -11 -10 -7 -10 5 0 2 -6 -6 -14 -7 -8 -43 -17 -78 -21 -36
-4 -98 -15 -139 -24 -69 -16 -75 -19 -72 -40 3 -16 -1 -22 -10 -19 -7 3 -12
12 -10 22 2 14 -1 14 -25 4 -15 -7 -39 -20 -52 -30 -13 -10 -28 -18 -33 -18
-5 0 -86 -33 -181 -74 -95 -40 -197 -81 -227 -89 -89 -26 -199 -105 -200 -144
0 -22 30 -14 88 22 56 34 247 116 349 149 29 10 55 22 58 26 7 12 82 46 155
71 30 11 61 27 68 36 6 9 12 12 12 5 0 -7 6 -12 14 -12 18 0 24 -17 36 -112
22 -173 42 -208 136 -229 91 -21 278 -18 337 4 44 17 49 24 83 95 20 43 40 87
46 99 8 16 8 30 1 45 -9 21 -10 20 -17 -16 -5 -27 -10 -35 -16 -26 -6 9 -12 6
-24 -13 -22 -32 -26 -83 -7 -79 20 4 -18 -57 -52 -82 -26 -19 -42 -21 -185
-21 -170 0 -220 10 -245 49 -23 34 -47 164 -47 251 0 97 11 108 114 124 91 13
197 15 178 2 -10 -6 -8 -10 10 -14 40 -11 87 -8 95 7 7 12 19 12 88 0 51 -9
84 -20 93 -31 6 -9 13 -42 13 -72 l1 -56 10 47 c6 26 16 49 23 52 7 2 38 2 67
-1 l55 -5 -10 -43 c-13 -56 -6 -77 45 -154 24 -35 54 -82 68 -105 40 -63 83
-80 210 -80 58 0 115 5 127 10 15 6 -20 9 -110 9 -187 1 -196 7 -249 173 -10
35 -18 66 -15 68 2 2 14 -30 27 -72 13 -41 28 -78 34 -81 29 -18 249 -26 243
-9 -4 13 -46 23 -104 25 -23 0 -45 6 -48 11 -4 6 -10 8 -15 5 -14 -9 -72 17
-61 28 6 6 5 17 -5 32 -12 18 -12 24 -2 32 32 24 48 22 63 -7 18 -35 49 -45
98 -32 19 5 48 8 64 6 l30 -3 -5 47 c-6 60 -17 81 -48 92 -33 13 -109 12 -159
-1 -68 -18 -105 -22 -105 -11 0 20 23 62 34 62 6 0 0 7 -13 16 -15 11 -19 20
-13 26 27 27 345 29 406 4 42 -17 57 -44 33 -58 -9 -4 -14 -14 -11 -21 2 -7
-17 -25 -46 -42 -29 -18 -50 -37 -50 -47 0 -10 4 -18 9 -18 16 0 111 62 111
73 0 5 7 7 15 3 9 -3 15 0 15 9 0 8 4 15 9 15 6 0 9 17 8 37 -3 35 -5 37 -57
55 -30 10 -83 23 -117 30 -57 10 -72 22 -69 51 2 12 -55 38 -67 30 -6 -3 -7
-1 -3 6 4 6 1 13 -6 15 -25 8 -97 14 -102 8z m-523 -119 c-7 -2 -19 -2 -25 0
-7 3 -2 5 12 5 14 0 19 -2 13 -5z m404 -85 c-3 -8 -6 -5 -6 6 -1 11 2 17 5 13
3 -3 4 -12 1 -19z m22 -83 l0 -20 -9 20 c-5 11 -9 29 -9 40 l0 20 9 -20 c5
-11 9 -29 9 -40z m255 24 c32 -25 35 -47 3 -26 -21 14 -32 14 -101 1 -43 -9
-81 -13 -84 -9 -16 16 70 54 124 55 17 0 43 -9 58 -21z m-249 -139 c3 -5 1
-10 -4 -10 -6 0 -11 5 -11 10 0 6 2 10 4 10 3 0 8 -4 11 -10z"/>
<path d="M2237 2743 c-9 -2 -15 -9 -12 -14 9 -14 22 -11 29 6 3 8 4 14 3 14
-1 -1 -10 -3 -20 -6z"/>
<path d="M2270 2740 c0 -5 5 -10 11 -10 5 0 7 5 4 10 -3 6 -8 10 -11 10 -2 0
-4 -4 -4 -10z"/>
<path d="M1810 2550 c-13 -8 -12 -10 3 -10 9 0 17 5 17 10 0 12 -1 12 -20 0z"/>
<path d="M2129 2539 c18 -6 31 -12 28 -15 -3 -3 -36 -14 -74 -24 -118 -32
-187 -57 -191 -69 -5 -16 37 -5 92 23 22 12 53 20 69 18 22 -3 27 -8 27 -32 0
-33 6 -35 97 -45 77 -8 106 -1 98 26 -4 12 -2 19 7 19 19 0 36 43 27 68 -9 24
-34 29 -42 10 -4 -9 -8 -10 -14 -3 -16 20 -65 35 -111 34 l-47 -1 34 -9z"/>
<path d="M2038 2533 c7 -3 16 -2 19 1 4 3 -2 6 -13 5 -11 0 -14 -3 -6 -6z"/>
<path d="M2078 2323 c7 -3 16 -2 19 1 4 3 -2 6 -13 5 -11 0 -14 -3 -6 -6z"/>
<path d="M2118 2323 c6 -2 18 -2 25 0 6 3 1 5 -13 5 -14 0 -19 -2 -12 -5z"/>
<path d="M911 2183 c-11 -10 -24 -34 -27 -53 l-6 -35 26 37 c15 21 39 44 54
52 l27 15 -26 1 c-15 0 -36 -8 -48 -17z"/>
<path d="M2818 2070 c3 -23 -1 -41 -9 -46 -7 -4 -14 -3 -16 3 -3 8 -14 8 -33
3 -16 -4 -31 -6 -34 -3 -7 8 -75 -17 -83 -31 -5 -6 -21 -22 -37 -34 -24 -19
-37 -21 -80 -16 -28 3 -63 10 -78 16 -40 15 -51 2 -27 -32 12 -15 18 -33 14
-40 -4 -7 1 -14 14 -17 12 -3 21 -10 21 -15 0 -6 8 -8 19 -5 10 2 26 0 35 -5
9 -5 46 -11 81 -13 81 -4 104 -17 50 -28 -48 -10 -74 -13 -180 -22 -121 -10
-305 -80 -305 -115 0 -6 -5 -10 -11 -10 -6 0 -8 8 -4 19 4 14 0 20 -20 23 -14
3 -28 1 -31 -3 -3 -5 -11 -9 -17 -9 -7 0 -6 4 3 10 8 5 11 12 7 16 -3 4 -14 1
-24 -7 -15 -13 -16 -12 -8 6 4 11 8 28 9 38 0 16 3 18 23 17 3 -1 16 33 28 74
12 41 34 93 48 115 38 57 33 70 -8 25 -60 -66 -97 -124 -121 -193 -29 -81 -30
-130 -4 -178 11 -21 20 -45 20 -53 0 -12 2 -12 9 -2 4 8 11 13 15 13 21 -3 26
2 26 32 0 19 3 36 6 39 3 4 29 -5 58 -18 58 -26 186 -43 381 -50 61 -2 129 -5
152 -8 28 -2 46 1 53 9 16 20 66 28 89 15 13 -6 21 -21 21 -35 0 -19 5 -25 21
-25 18 0 20 -4 14 -27 -3 -16 -12 -41 -20 -58 -12 -29 -46 -138 -67 -220 -6
-22 -13 -47 -15 -55 -2 -8 -5 -17 -5 -20 -2 -12 -44 -34 -69 -35 -19 -1 -26 2
-22 12 3 7 1 13 -5 13 -5 0 -12 -7 -16 -15 -7 -18 -36 -20 -36 -2 0 6 -12 17
-26 24 -25 12 -26 11 -20 -13 9 -33 -14 -28 -31 7 -11 20 -13 21 -13 5 0 -15
-3 -16 -14 -7 -11 9 -17 8 -29 -3 -8 -8 -17 -12 -21 -9 -9 10 -36 -18 -29 -31
3 -6 0 -6 -8 2 -20 19 -26 15 -39 -23 -9 -27 -15 -33 -24 -26 -7 6 -31 8 -53
5 -28 -4 -43 -1 -52 9 -6 8 -21 13 -31 10 -16 -4 -20 0 -20 18 -1 22 -2 23
-14 7 -16 -22 -30 -23 -22 -3 8 21 -28 20 -49 -1 -13 -13 -16 -14 -15 -3 5 30
-1 38 -26 35 -14 -2 -30 -9 -36 -17 -7 -10 -8 -8 -3 8 9 31 -3 48 -21 32 -21
-17 -29 -3 -10 16 24 24 19 36 -8 23 -25 -11 -43 -43 -49 -85 -3 -23 -44 -73
-59 -73 -4 0 -8 7 -8 16 0 9 5 12 12 8 7 -4 8 -3 4 5 -4 6 -2 19 5 27 10 12 9
13 -5 8 -9 -3 -16 -1 -16 6 0 6 -4 9 -9 5 -11 -6 -26 33 -17 42 3 4 15 7 25 8
25 2 51 23 51 43 0 13 -3 12 -20 -3 -11 -10 -28 -15 -40 -12 -11 3 -18 2 -15
-2 7 -13 -22 -47 -32 -37 -4 5 -2 11 5 13 6 3 12 9 12 15 0 6 -6 6 -15 -2 -8
-7 -15 -18 -15 -24 0 -6 -11 -16 -25 -23 -29 -13 -34 -3 -6 14 10 6 21 22 24
34 5 19 0 16 -28 -15 -26 -30 -31 -41 -22 -51 7 -7 14 -10 17 -6 8 12 41 22
51 15 5 -3 5 -13 -1 -25 -8 -13 -7 -19 0 -19 6 0 8 -5 4 -11 -4 -8 -9 -7 -15
2 -4 7 -11 10 -14 7 -11 -11 5 -28 26 -28 12 0 17 -4 14 -11 -4 -6 2 -13 14
-16 12 -3 21 -11 21 -18 0 -16 48 -29 63 -17 7 5 20 12 31 16 15 5 17 2 13
-14 -4 -15 2 -24 23 -35 16 -8 36 -15 45 -15 12 0 15 -6 10 -20 -4 -12 -2 -20
5 -20 6 0 10 -6 7 -12 -2 -7 3 -18 12 -25 14 -11 14 -12 -1 -13 -25 0 -22 -15
6 -28 41 -18 96 -97 117 -167 18 -60 52 -125 101 -198 10 -15 16 -32 13 -37
-12 -19 54 -233 104 -342 l31 -68 755 0 755 0 0 240 0 239 -42 12 c-24 7 -69
28 -100 47 -43 26 -74 36 -121 41 -35 4 -75 15 -88 24 -13 10 -38 28 -56 41
-46 34 -170 57 -294 55 -108 -2 -115 0 -234 57 -27 13 -66 30 -86 37 -33 14
-37 19 -63 108 -15 52 -39 113 -52 136 -29 49 -29 49 -7 57 17 7 66 -31 58
-45 -3 -4 4 -10 15 -14 11 -3 20 -14 20 -23 0 -15 2 -15 10 -2 8 12 10 11 10
-6 0 -11 11 -34 25 -50 14 -16 25 -32 25 -36 0 -3 14 -20 30 -37 25 -24 32
-27 37 -15 3 8 -1 29 -10 47 -9 18 -22 48 -31 67 -9 19 -27 45 -40 58 -14 12
-27 36 -31 52 -4 17 -11 30 -16 30 -5 0 -9 8 -10 18 0 10 -3 12 -6 4 -2 -6 -9
-10 -13 -7 -5 3 -6 13 -3 22 5 13 2 15 -12 9 -18 -7 -18 -6 1 16 10 13 22 25
25 28 4 3 9 15 13 28 4 12 11 22 16 22 12 0 2 -30 -18 -52 -16 -19 -12 -40 9
-44 7 -1 22 -5 31 -9 11 -4 20 0 28 14 6 12 17 21 26 21 8 0 19 12 25 27 6 15
15 31 21 34 16 10 0 79 -17 79 -8 0 -15 6 -15 13 0 8 -4 7 -10 -3 -5 -8 -10
-10 -10 -5 0 6 -10 12 -23 13 -17 1 -26 -6 -34 -26 -10 -27 -10 -26 -10 10 -1
21 3 35 8 32 5 -3 9 2 9 10 0 8 -5 18 -10 21 -6 4 -3 16 10 32 11 14 20 31 20
38 0 7 7 18 16 26 9 7 14 22 11 36 -2 13 0 20 6 16 6 -4 8 5 4 26 -4 20 -3 30
3 26 10 -6 15 66 9 140 -2 22 -4 63 -4 92 0 28 -2 51 -5 50 -3 -1 -19 12 -36
28 -18 17 -64 59 -103 95 -39 36 -71 70 -71 76 0 6 -6 16 -13 22 -10 8 -12 2
-9 -28z m217 -330 c9 -28 -49 -130 -74 -130 -13 0 -15 26 -2 34 5 3 7 16 4 29
-3 16 -2 18 5 9 7 -10 12 -4 17 25 5 21 9 41 10 46 2 4 3 9 4 12 3 11 31 -8
36 -25z m-367 -20 l62 -13 0 -39 c0 -34 -2 -39 -19 -33 -21 6 -197 17 -264 16
-31 -1 -40 4 -44 20 l-6 20 -14 -21 c-16 -22 -69 -28 -76 -7 -3 8 -10 6 -26
-8 -19 -16 -24 -17 -31 -5 -11 18 15 50 40 50 9 0 21 5 27 11 6 6 27 11 46 11
19 0 40 4 48 9 18 12 175 5 257 -11z m292 -127 c-1 -5 -7 -19 -14 -32 l-13
-23 -6 23 c-3 12 -4 26 -1 31 6 10 34 11 34 1z m47 -400 c-10 -9 -56 -10 -51
-1 3 4 17 8 31 8 15 0 23 -3 20 -7z m-1052 -173 c-3 -5 -14 -10 -23 -9 -14 0
-13 2 3 9 27 11 27 11 20 0z m185 -147 c0 -7 -4 -13 -10 -13 -5 0 -10 6 -10
14 0 8 -3 23 -6 33 -6 16 -5 16 9 -2 9 -11 17 -26 17 -32z m599 -319 c-24 -90
-62 -165 -118 -232 -21 -26 -49 -67 -63 -92 -28 -48 -62 -83 -91 -93 -16 -6
-16 -5 -2 24 9 17 31 47 48 67 36 41 87 117 87 130 0 4 18 27 40 51 22 23 40
50 40 59 0 17 72 174 77 168 2 -2 -6 -39 -18 -82z"/>
<path d="M1102 2029 c-33 -41 -23 -53 16 -18 18 16 30 34 27 39 -10 15 -18 11
-43 -21z"/>
<path d="M2200 2039 c0 -5 5 -7 10 -4 6 3 10 8 10 11 0 2 -4 4 -10 4 -5 0 -10
-5 -10 -11z"/>
<path d="M2426 2022 c-39 -9 -46 -30 -9 -26 59 6 139 6 158 -1 l20 -7 -20 15
c-24 17 -108 28 -149 19z"/>
<path d="M2388 1918 c-4 -9 -4 -19 0 -23 4 -3 7 -12 7 -18 0 -21 20 -18 21 3
1 11 -2 20 -7 20 -4 0 -9 8 -11 18 -3 15 -4 15 -10 0z"/>
<path d="M2291 1884 c0 -11 3 -14 6 -6 3 7 2 16 -1 19 -3 4 -6 -2 -5 -13z"/>
<path d="M2340 1870 c0 -11 2 -20 4 -20 2 0 6 9 9 20 3 11 1 20 -4 20 -5 0 -9
-9 -9 -20z"/>
<path d="M1651 1467 c60 -45 82 -87 89 -171 l5 -71 17 30 c15 29 15 34 0 80
-21 61 -63 118 -107 145 -49 31 -52 24 -4 -13z"/>
<path d="M2610 1481 c-42 -6 -99 -36 -100 -53 0 -5 -6 -8 -13 -8 -8 0 -18 -9
-23 -20 -9 -21 -9 -21 -34 2 -19 18 -22 19 -17 4 4 -10 7 -21 7 -26 0 -11 142
-85 158 -82 6 2 12 -3 12 -10 1 -8 6 -6 15 6 7 10 18 15 24 11 6 -3 11 -1 11
6 0 7 3 10 6 6 3 -3 23 10 44 29 35 32 37 39 36 89 l0 55 -41 -1 c-22 -1 -60
-5 -85 -8z m117 -93 c-3 -8 -6 -5 -6 6 -1 11 2 17 5 13 3 -3 4 -12 1 -19z"/>
<path d="M1805 1380 c-3 -5 -1 -10 4 -10 6 0 11 5 11 10 0 6 -2 10 -4 10 -3 0
-8 -4 -11 -10z"/>
<path d="M1831 1374 c0 -11 3 -14 6 -6 3 7 2 16 -1 19 -3 4 -6 -2 -5 -13z"/>
<path d="M1864 1266 c-3 -14 -10 -23 -15 -20 -5 3 -9 -2 -9 -10 0 -8 4 -17 9
-21 10 -6 36 63 27 72 -3 3 -8 -6 -12 -21z"/>
<path d="M1800 1255 c-10 -12 -10 -15 4 -15 9 0 16 7 16 15 0 8 -2 15 -4 15
-2 0 -9 -7 -16 -15z"/>
<path d="M1455 1244 c-60 -15 -90 -29 -121 -56 -19 -17 -31 -34 -28 -39 3 -5
0 -9 -7 -9 -8 0 -10 -16 -6 -56 3 -31 8 -58 10 -60 2 -2 28 6 58 19 30 13 90
36 134 51 88 29 159 65 157 81 0 6 -11 16 -24 24 -21 12 -21 12 -5 -2 33 -28
8 -39 -28 -11 -16 12 -17 16 -6 23 11 7 9 11 -7 20 -25 13 -99 22 -127 15z m5
-34 c-19 -13 -30 -13 -30 0 0 6 10 10 23 10 18 0 19 -2 7 -10z m-65 -10 c-3
-5 -12 -10 -18 -10 -7 0 -6 4 3 10 19 12 23 12 15 0z m-40 -30 c-3 -5 -11 -10
-16 -10 -6 0 -7 5 -4 10 3 6 11 10 16 10 6 0 7 -4 4 -10z"/>
<path d="M1777 1210 c-8 -12 -21 -18 -29 -15 -11 5 -15 -1 -15 -19 0 -19 5
-26 19 -26 10 0 16 -4 13 -10 -3 -5 -2 -10 2 -10 9 0 36 39 39 58 1 6 -2 10
-7 6 -5 -3 -7 -9 -4 -14 3 -4 -2 -11 -11 -14 -12 -5 -14 -1 -8 17 3 12 11 28
16 35 6 6 8 12 5 12 -3 0 -12 -9 -20 -20z"/>
<path d="M1994 1195 c-9 -21 -2 -26 13 -10 8 9 9 16 3 20 -6 3 -13 -1 -16 -10z"/>
<path d="M1960 1161 c0 -5 5 -13 10 -16 6 -3 10 -2 10 4 0 5 -4 13 -10 16 -5
3 -10 2 -10 -4z"/>
<path d="M3770 1109 c-7 -11 -10 -22 -8 -23 2 -1 39 -26 83 -54 44 -29 91 -61
105 -72 44 -35 51 -27 48 48 -2 46 -7 67 -16 67 -7 0 -16 5 -20 10 -18 25 -73
45 -126 45 -46 0 -57 -4 -66 -21z"/>
<path d="M1845 1099 c-4 -6 -5 -12 -2 -15 2 -3 7 2 10 11 7 17 1 20 -8 4z"/>
<path d="M1440 220 c0 -5 5 -10 10 -10 6 0 10 5 10 10 0 6 -4 10 -10 10 -5 0
-10 -4 -10 -10z"/>
<path d="M1500 93 c-30 -16 -65 -43 -78 -60 l-25 -33 182 0 c119 0 181 4 181
10 0 6 -9 28 -20 50 -15 30 -29 41 -57 49 -66 19 -125 13 -183 -16z"/>
</g>
</svg>
